<svg width="100" height="40" viewBox="0 0 100 40" fill="none" xmlns="http://www.w3.org/2000/svg">
<path d="M30.1593 17.1669L30.2062 17.3076L36.3976 14.7748C37.8047 14.212 38.4614 12.5703 37.8986 11.1632L37.8047 11.0225L31.6134 13.5553C30.2531 14.1181 29.5496 15.7598 30.1593 17.1669Z" fill="white"/>
<path d="M28.2832 13.4614L28.4239 13.6022L33.1613 8.86483C34.2401 7.78603 34.2401 6.05057 33.1613 4.97177L33.0206 4.83105L28.2832 9.52149C27.2044 10.6003 27.2044 12.3827 28.2832 13.4614Z" fill="white"/>
<path d="M60.4595 23.2171H56.6134V21.3878H60.3657V19.7931H56.6134V18.1045H60.4595V16.5098H54.8779V24.8118H60.4595V23.2171Z" fill="white"/>
<path d="M60.3188 12.1018H56.801V5.39453H54.9248V13.7435H60.3188V12.1018Z" fill="white"/>
<path d="M25.1878 10.7874L25.3285 10.8343L27.9082 4.64291C28.4711 3.23578 27.8144 1.64104 26.4073 1.03128L26.2666 0.984375L23.6869 7.17574C23.124 8.58287 23.7807 10.1776 25.1878 10.7874Z" fill="white"/>
<path d="M9.80303 22.7482L9.75612 22.5605L3.56475 25.0934C2.15762 25.6562 1.50096 27.2979 2.06381 28.705L2.11072 28.7988L8.30209 26.3129C9.70922 25.7969 10.3659 24.1553 9.80303 22.7482Z" fill="white"/>
<path d="M11.6325 26.4073L11.4917 26.2666L6.75441 31.0508C5.67561 32.1296 5.67561 33.8651 6.75441 34.9439L6.89512 35.0846L11.6325 30.3473C12.7113 29.2685 12.7113 27.4861 11.6325 26.4073Z" fill="white"/>
<path d="M63.321 5.39453H61.4448V13.7435H63.321V5.39453Z" fill="white"/>
<path d="M9.56839 11.6325C10.6472 12.7113 12.3826 12.7113 13.4614 11.6325L13.6022 11.4917L8.86483 6.75441C7.78603 5.67561 6.05057 5.67561 4.97177 6.75441L4.83105 6.89512L9.56839 11.6325Z" fill="white"/>
<path d="M9.47467 18.6681V18.4805H2.76736C1.26642 18.4805 0 19.7 0 21.2478V21.4354H6.70732C8.25516 21.4354 9.47467 20.169 9.47467 18.6681Z" fill="white"/>
<path d="M8.255 16.4167C8.63024 16.4167 8.95857 16.3229 9.2869 16.229C9.94356 15.9476 10.5064 15.4317 10.7878 14.7281L10.8347 14.5874L4.64337 12.0077C3.23624 11.4448 1.64149 12.1015 1.03174 13.5086V13.6024L7.22311 16.1821C7.55144 16.3229 7.92667 16.4167 8.255 16.4167Z" fill="white"/>
<path d="M78.1427 12.3364H81.8013L82.3172 13.7435H84.3341L81.0977 5.44143V5.39453H78.7994L75.563 13.7435H77.6268L78.1427 12.3364ZM79.972 7.12999L81.2853 10.7416H78.6587L79.972 7.12999Z" fill="white"/>
<path d="M97.6077 12.1488H93.5271V10.3195H97.5139V8.72474H93.5271V7.03618H97.6077V5.39453H91.6509V13.7435H97.6077V12.1488Z" fill="white"/>
<path d="M86.0694 13.7435H87.9455V7.03618H90.3846V5.39453H83.6772V7.03618H86.0694V13.7435Z" fill="white"/>
<path d="M88.5556 16.5098L85.5537 24.8118H87.4299L87.8989 23.4047H91.276L91.7451 24.8118H93.6213L90.6194 16.5567V16.5098H88.5556ZM90.7601 21.81H88.3211L89.5406 18.1983L90.7601 21.81Z" fill="white"/>
<path d="M62.1011 16.5098V21.4816C62.1011 23.6861 63.3675 24.9525 65.6189 24.9525C67.8234 24.9525 69.0898 23.6861 69.0898 21.4816V16.5098H67.3544V21.4347C67.3544 22.6073 66.7446 23.3109 65.6189 23.3109C64.4932 23.3109 63.8834 22.6542 63.8834 21.4347V16.5098H62.1011Z" fill="white"/>
<path d="M94.9346 16.5098V24.8118H99.9064V23.1702H96.6231V16.5098H94.9346Z" fill="white"/>
<path d="M74.4839 24.8118V18.1514H76.7353V16.5098H70.4971V18.1514H72.7485V24.8118H74.4839Z" fill="white"/>
<path d="M84.4746 19.1841C84.4746 19.0903 84.4746 18.9965 84.4746 18.9027C84.4277 17.4956 83.2551 16.4168 81.848 16.5106H78.1895V24.8126H79.9249V21.8577H81.0506L82.5516 24.8126H84.5215L82.7861 21.67C83.6304 21.4355 84.4746 20.685 84.4746 19.1841ZM81.5666 20.2629H79.878V18.1053H81.5666C82.1763 18.1053 82.6454 18.5744 82.6454 19.1841C82.6454 19.7939 82.1763 20.2629 81.5666 20.2629Z" fill="white"/>
<path d="M67.2141 8.02117L69.4655 13.6966V13.7435H70.3097L72.5612 8.02117V13.7435H74.4373V5.39453H71.8576L69.8876 10.5071L67.9176 5.44143H65.3379V13.7435H67.2141V8.02117Z" fill="white"/>
<path d="M14.7281 29.0801L14.5874 29.0332L12.0077 35.2246C11.4448 36.6317 12.1015 38.2264 13.5086 38.8362L13.6493 38.8831L16.229 32.6917C16.7919 31.2846 16.1352 29.6899 14.7281 29.0801Z" fill="white"/>
<path d="M61.3507 35.2722C61.3507 35.2253 61.3507 35.1784 61.3507 35.1315C61.3038 34.381 60.6471 33.8181 59.8966 33.865H58.0674V38.1802H58.9586V36.6324H59.4745L60.4126 38.1802H61.4914L60.4126 36.5386C60.9755 36.3979 61.3507 35.8819 61.3507 35.2722ZM59.8028 35.835H58.9586V34.7093H59.8028C59.8497 34.7093 59.8497 34.7093 59.8966 34.7093C60.1781 34.7562 60.4126 34.9907 60.4126 35.3191C60.3657 35.6005 60.0843 35.835 59.8028 35.835Z" fill="white"/>
<path d="M77.1577 33.8652V38.1804H78.0489V33.8652H77.1577Z" fill="white"/>
<path d="M72.0449 38.1804H72.9361V36.3981H74.9999V35.6007H72.9361V34.7095H75.0468V33.8652H72.0449V38.1804Z" fill="white"/>
<path d="M11.1632 1.97055L11.0225 2.01746L13.5553 8.20883C13.8367 8.86549 14.3527 9.42834 15.0562 9.70976C15.3846 9.85048 15.7598 9.94429 16.135 9.94429C16.5103 9.94429 16.8386 9.85048 17.1669 9.70976L17.3545 9.66286L14.8217 3.47149C14.212 2.06436 12.5703 1.4077 11.1632 1.97055Z" fill="white"/>
<path d="M63.2271 34.7095H64.4466V38.1804H65.3846V34.7095H66.6042V33.8652H63.2271V34.7095Z" fill="white"/>
<path d="M100 28.8926H46.7168V29.9245H100V28.8926Z" fill="white"/>
<path d="M80.4409 38.1804H83.4428V37.3362H81.379V36.3981H83.3959V35.6007H81.379V34.7095H83.4428V33.8652H80.4409V38.1804Z" fill="white"/>
<path d="M52.8145 38.1804H55.8163V37.3362H53.7056V36.3981H55.7694V35.6007H53.7056V34.7095H55.8163V33.8652H52.8145V38.1804Z" fill="white"/>
<path d="M87.2891 33.8652H85.6943V38.1804H87.2891C88.5086 38.1804 89.4467 37.1954 89.4467 36.0228C89.4467 34.8502 88.4617 33.8652 87.2891 33.8652ZM87.2891 37.3831H86.6324V34.7095H87.2891C87.336 34.7095 87.3829 34.7095 87.4767 34.7095C88.1334 34.7564 88.6493 35.3662 88.6024 36.0228C88.6024 36.0697 88.6024 36.1166 88.6024 36.1635C88.5555 36.8671 87.9457 37.3831 87.2891 37.3831Z" fill="white"/>
<path d="M69.606 33.8652H68.7148V38.1804H69.606V33.8652Z" fill="white"/>
<path d="M29.1275 25.141L29.0337 25.2817L35.272 27.9083C35.6003 28.0491 35.9755 28.096 36.3039 28.096C37.4296 28.096 38.4146 27.4393 38.8367 26.4074L38.8836 26.2667L32.6922 23.687C31.332 23.0772 29.7373 23.7339 29.1275 25.141Z" fill="white"/>
<path d="M30.3472 28.2368C29.2684 27.158 27.533 27.158 26.4542 28.2368L26.3135 28.3775L31.0508 33.1149C32.1296 34.1937 33.8651 34.1937 34.9439 33.1149L35.0846 32.9742L30.3472 28.2368Z" fill="white"/>
<path d="M26.3603 31.6141C25.7974 30.2069 24.2027 29.5503 22.7955 30.1131L22.6079 30.16L25.0938 36.3514C25.3753 37.0081 25.8912 37.5709 26.5948 37.8523C26.9231 37.9931 27.2983 38.0869 27.6736 38.0869C28.0488 38.0869 28.3771 37.9931 28.7055 37.8523L28.8931 37.8054L26.3603 31.6141Z" fill="white"/>
<path d="M18.6681 0H18.4805V6.70732C18.4805 8.20825 19.7 9.42777 21.2478 9.42777H21.4354V2.72045C21.4354 1.21951 20.169 0 18.6681 0Z" fill="white"/>
<path d="M18.6681 30.3945H18.4805V37.1019C18.4805 38.6497 19.7 39.8692 21.2478 39.8692H21.4354V33.1619C21.4354 31.6609 20.169 30.3945 18.6681 30.3945Z" fill="white"/>
<path d="M30.4409 21.2478V21.3885H37.1482C38.6961 21.3885 39.9156 20.1221 39.9156 18.6212V18.4805H33.2083C31.6604 18.4805 30.4409 19.7469 30.4409 21.2478Z" fill="white"/>
<path d="M49.8591 13.9302C51.36 13.9771 52.7202 13.1798 53.4238 11.8664L53.4707 11.8195L51.876 11.0691V11.116C51.5007 11.8664 50.7503 12.2886 49.906 12.2886C49.8591 12.2886 49.8122 12.2886 49.8122 12.2886C48.405 12.1948 47.3262 11.0222 47.4201 9.61504C47.4201 9.56814 47.4201 9.56814 47.4201 9.52123C47.4201 8.1141 48.5458 6.9884 49.906 6.94149C50.7503 6.94149 51.5007 7.41054 51.876 8.1141V8.16101L53.4707 7.36363V7.31673C52.7671 6.00341 51.36 5.20603 49.906 5.25294C49.8122 5.25294 49.7184 5.25294 49.6246 5.25294C47.2793 5.29984 45.4501 7.22292 45.497 9.56813C45.497 9.66194 45.497 9.75575 45.497 9.84956C45.5908 12.1948 47.5608 14.024 49.8591 13.9302Z" fill="white"/>
<path d="M47.7018 19.4178L51.3134 24.8118H52.955V16.5098H51.2196V21.7161L47.7487 16.5098H46.0132L45.9663 24.8118H47.7018V19.4178Z" fill="white"/>
<path d="M48.9682 34.6626C49.3434 34.6626 49.7187 34.8503 49.9063 35.1786L50.0001 35.3193L50.7975 34.8972L50.7037 34.7564C50.3284 34.1467 49.6718 33.8184 48.9682 33.8184C47.7487 33.8184 46.7168 34.8033 46.7168 36.0698C46.7168 37.3362 47.7018 38.3212 48.9682 38.3212C49.6718 38.3212 50.3284 37.9928 50.7037 37.3831L50.7975 37.2893L50.0001 36.8671L49.9063 37.0079C49.7187 37.3362 49.3434 37.5238 48.9682 37.5238C48.3584 37.43 47.8425 36.9609 47.7956 36.3512C47.6549 35.5069 48.2177 34.8033 48.9682 34.6626Z" fill="white"/>
</svg>
