<svg width="185" height="31" viewBox="0 0 185 31" fill="none" xmlns="http://www.w3.org/2000/svg">
<path d="M104.591 17.4113C100.771 17.4113 98.151 14.4823 98.151 10.4793C98.151 6.44381 100.834 3.41718 104.591 3.41718C108.348 3.41717 111.032 6.41126 111.032 10.4793C111.032 14.4823 108.348 17.4113 104.591 17.4113ZM104.591 1.1949e-05C98.6877 1.24695e-05 94.6468 4.62132 94.6468 10.4793C94.6468 16.3048 98.6877 20.8284 104.591 20.8284C110.432 20.8284 114.473 16.3048 114.473 10.4793C114.473 4.62132 110.432 1.1434e-05 104.591 1.1949e-05ZM120.345 0.423088L116.872 0.423088L116.872 20.4054L130.479 20.4054L130.479 16.9882L120.313 16.9882L120.313 0.423088L120.345 0.423088ZM79.3037 20.4054L93.0051 20.4054L93.0051 16.9882L82.7765 16.9882L82.7765 11.9113L91.8686 11.9113L91.8686 8.46156L82.7765 8.46156L82.7765 3.84025L93.0051 3.84025L93.0051 0.42309L79.3037 0.423092L79.3037 20.4054ZM181.054 0.455627L181.054 8.2012C181.054 10.7397 179.759 12.2692 177.834 12.2692C176.003 12.2692 175.087 11.1302 175.087 8.94972L175.087 0.455627L171.172 0.455628L171.235 9.69824C171.235 13.4734 173.193 15.8491 176.571 15.8491C178.528 15.8491 180.044 15.0681 181.085 13.8314L181.085 16.8255C181.085 19.5267 179.538 21.219 177.265 21.219C175.529 21.219 174.235 20.2426 174.014 18.3876L170.288 18.9083C170.478 22.5207 173.382 24.7663 177.265 24.7663C181.906 24.7663 185 21.3491 185 16.6627L185 0.455627L181.054 0.455627ZM162.964 24.0503C162.964 25.4172 161.891 26.4912 160.596 26.4912C158.702 26.4912 157.85 25.1243 157.85 23.79C157.85 22.6509 158.45 21.5444 159.523 20.6983C160.218 20.145 161.291 19.5592 162.996 19.2012L162.996 24.0503L162.964 24.0503ZM161.733 10.5119C161.007 11.2604 160.091 11.6184 158.986 11.6184C157.881 11.6184 156.966 11.2604 156.24 10.5119C155.514 9.73079 155.166 8.787 155.166 7.6154C155.166 6.4438 155.514 5.46747 156.24 4.71895C156.966 3.93788 157.881 3.57989 158.986 3.57989C160.091 3.57989 161.007 3.93788 161.733 4.71895C162.491 5.46747 162.838 6.4438 162.838 7.6154C162.838 8.75445 162.491 9.73079 161.733 10.5119ZM166.405 11.4231L166.405 0.455628L162.838 0.455629L162.838 2.14794C161.764 0.748528 160.249 0.0650959 158.323 0.065096C156.461 0.0650962 154.882 0.813618 153.556 2.27812C152.262 3.74262 151.599 5.50001 151.599 7.6154C151.599 9.73079 152.262 11.5207 153.556 12.9852C154.882 14.4497 156.461 15.1657 158.323 15.1657C160.249 15.1657 161.733 14.5148 162.964 12.9527L162.964 15.6213C160.723 15.9793 158.828 16.7604 157.376 17.932C155.482 19.4616 154.377 21.6095 154.377 23.8551C154.377 27.4349 157.029 30.1036 160.565 30.1036C163.785 30.1036 166.405 27.4024 166.405 24.0829L166.405 18.9083L168.299 18.9083L168.299 15.3284L166.405 15.3284L166.405 11.4231ZM140.36 17.4113C136.54 17.4113 133.92 14.4823 133.92 10.4793C133.92 6.4438 136.603 3.41717 140.36 3.41717C144.117 3.41717 146.8 6.41126 146.8 10.4793C146.8 14.4823 144.117 17.4113 140.36 17.4113ZM140.392 8.79216e-06C134.488 9.31272e-06 130.447 4.62132 130.447 10.4793C130.447 16.3048 134.488 20.8284 140.392 20.8284C146.232 20.8284 150.273 16.3048 150.273 10.4793C150.273 4.62132 146.232 8.27716e-06 140.392 8.79216e-06ZM-4.21573e-07 20.4054L3.4727 20.4054L3.4727 12.4971L12.5017 12.4971L12.5017 9.07991L3.4727 9.07991L3.4727 3.87281L13.6382 3.8728L13.6382 0.423097L-8.74117e-09 0.423099L-4.21573e-07 20.4054ZM65.7287 13.2781C65.4761 13.6361 65.1604 13.7988 64.6869 13.7988C64.2133 13.7988 63.8976 13.6361 63.645 13.2781C63.3294 12.79 63.1399 12.0414 63.1399 11.1627C63.1399 9.11245 63.7713 7.48523 64.6553 6.24854C65.5708 7.48523 66.1706 9.11245 66.1706 11.1627C66.2022 12.0414 66.0444 12.8225 65.7287 13.2781ZM69.3908 0.0325595C67.5597 0.0325596 66.0128 0.55327 64.6869 1.43197C63.3609 0.553271 61.7824 0.0325601 59.9829 0.0325603C56.0998 0.0325606 52.9744 3.287 52.9744 7.25742L52.9744 20.4054L56.4471 20.4054L56.4471 7.25742C56.4471 5.23967 58.0572 3.5799 60.0145 3.5799C60.6459 3.5799 61.372 3.74262 62.0666 4.06807C60.5512 6.24854 59.7619 8.91718 59.7619 11.1627C59.7619 12.79 60.1408 14.2219 60.8669 15.3284C61.7509 16.6628 63.1399 17.3787 64.75 17.3787C66.3601 17.3787 67.7176 16.6302 68.6331 15.3284C69.3592 14.2545 69.7381 12.8225 69.7381 11.1627C69.7381 8.91718 68.9488 6.216 67.4334 4.06807C68.128 3.74262 68.8225 3.5799 69.4855 3.5799C71.4428 3.5799 73.0529 5.23966 73.0529 7.25742L73.0529 20.4054L76.5256 20.4054L76.5256 7.25742C76.3993 3.25446 73.2423 0.0325591 69.3908 0.0325595ZM39.1468 11.9438L41.9881 4.65387L44.8293 11.9438L39.1468 11.9438ZM39.936 0.423095L32.0751 20.4054L35.8319 20.4054L37.7892 15.3935L46.1553 15.3935L48.1126 20.4054L51.901 20.4054L44.0085 0.423095L39.936 0.423095ZM24.5614 9.30772L19.5418 9.30772L19.5418 3.84026L24.5614 3.84026C26.3925 3.84026 27.4974 4.88168 27.4974 6.54145C27.4974 8.29884 26.3609 9.30772 24.5614 9.30772ZM30.9386 6.57399C30.9386 2.9941 28.5392 0.45564 24.7509 0.455641L16.0691 0.455641L16.0691 20.4379L19.5418 20.4379L19.5418 12.7249L23.8669 12.7249L27.3396 20.4379L31.0964 20.4379L27.308 12.2693C29.5811 11.3906 30.9386 9.27518 30.9386 6.57399Z" fill="white"/>
</svg>
