<svg width="66" height="28" viewBox="0 0 66 28" fill="none" xmlns="http://www.w3.org/2000/svg">
<path d="M12.0594 3.60004C11.2859 4.52353 10.0483 5.25191 8.81064 5.14785C8.65593 3.8992 9.26186 2.5725 9.97093 1.75307C10.7445 0.803577 12.0981 0.127223 13.194 0.0751953C13.3229 1.37588 12.8201 2.65055 12.0594 3.60004ZM13.1811 5.39498C11.3891 5.29093 9.8549 6.42252 9.00402 6.42252C8.14025 6.42252 6.83814 5.44701 5.42001 5.47302C3.57644 5.49904 1.86179 6.55259 0.92067 8.23047C-1.01315 11.5862 0.417878 16.5548 2.28723 19.2863C3.20257 20.639 4.2984 22.1218 5.74232 22.0697C7.10888 22.0177 7.65035 21.1723 9.30054 21.1723C10.9636 21.1723 11.4406 22.0697 12.8845 22.0437C14.38 22.0177 15.3211 20.691 16.2365 19.3383C17.2807 17.8035 17.7062 16.3077 17.732 16.2297C17.7062 16.2036 14.8441 15.0981 14.8184 11.7683C14.7926 8.98487 17.0745 7.65817 17.1776 7.58013C15.8884 5.65512 13.8772 5.44701 13.1811 5.39498ZM23.5334 1.62301V21.9006H26.6533V14.968H30.9722C34.9171 14.968 37.6889 12.2366 37.6889 8.2825C37.6889 4.32842 34.9687 1.62301 31.0753 1.62301H23.5334ZM26.6533 4.2764H30.2502C32.9575 4.2764 34.5046 5.73316 34.5046 8.2955C34.5046 10.8578 32.9575 12.3276 30.2373 12.3276H26.6533V4.2764ZM43.3872 22.0567C45.3468 22.0567 47.1646 21.0552 47.9897 19.4684H48.0542V21.9006H50.942V11.8073C50.942 8.88081 48.6214 6.99482 45.0503 6.99482C41.7371 6.99482 39.2876 8.90682 39.1973 11.5342H42.0078C42.2399 10.2855 43.3872 9.46612 44.9601 9.46612C46.8681 9.46612 47.9382 10.3636 47.9382 12.0155V13.134L44.0447 13.3682C40.4221 13.5893 38.4625 15.0851 38.4625 17.6864C38.4625 20.3138 40.4865 22.0567 43.3872 22.0567ZM44.2252 19.6505C42.5622 19.6505 41.505 18.844 41.505 17.6084C41.505 16.3337 42.5235 15.5923 44.4702 15.4753L47.9382 15.2542V16.3988C47.9382 18.2977 46.3395 19.6505 44.2252 19.6505ZM54.7968 27.4155C57.8393 27.4155 59.2703 26.2449 60.5209 22.694L66 7.18992H62.8285L59.1543 19.1692H59.0898L55.4156 7.18992H52.1539L57.4396 21.9527L57.156 22.8501C56.679 24.3719 55.9055 24.9572 54.526 24.9572C54.2811 24.9572 53.8041 24.9312 53.6107 24.9052V27.3375C53.7912 27.3895 54.5647 27.4155 54.7968 27.4155Z" fill="white"/>
</svg>
