<svg width="110" height="100" viewBox="0 0 110 100" fill="none" xmlns="http://www.w3.org/2000/svg">
<path d="M86.2347 12.9308L7.21878 13.3501C6.26692 13.3501 5.32639 13.5541 4.44252 13.928C3.55865 14.302 2.76544 14.846 2.09687 15.5259C1.4283 16.2059 0.895705 17.0105 0.533091 17.8944C0.170477 18.7784 -0.0108315 19.7303 0.000500213 20.6822L0.295118 78.1156C0.295118 79.0675 0.499088 80.0081 0.861702 80.8921C1.23565 81.776 1.76825 82.5693 2.44815 83.2379C3.12805 83.9065 3.9326 84.4391 4.81647 84.8018C5.70034 85.1644 6.64088 85.3457 7.60407 85.3344L36.3752 85.1871C39.2988 89.2215 44.0014 95.5903 46.5964 99.1714C46.789 99.4434 47.0497 99.6587 47.3556 99.8061C47.6616 99.9534 47.9902 100.01 48.3188 99.9987C48.6475 99.9761 48.9761 99.8741 49.2594 99.7041C49.5426 99.5341 49.7806 99.2848 49.9506 99.0014L57.9281 85.0738L86.6313 84.9151C87.5831 84.9151 88.535 84.7225 89.4075 84.3485C90.2914 83.9745 91.0846 83.4419 91.7532 82.7619C92.4218 82.082 92.9544 81.2774 93.317 80.3934C93.6796 79.5095 93.8609 78.5575 93.8496 77.6056L93.5889 20.1496C93.5889 19.1863 93.3963 18.2344 93.0223 17.3505C92.6484 16.4665 92.1045 15.6619 91.4133 14.9933C90.7334 14.3247 89.9174 13.7921 89.0222 13.4407C88.127 13.0894 87.1752 12.9081 86.212 12.9194L86.2347 12.9308Z" fill="#3300CC"/>
<path d="M39.8765 61.6715C40.0465 63.1334 39.8991 64.618 39.4685 66.0232C39.0379 67.4284 38.3127 68.7317 37.3495 69.8536C39.4119 69.6609 41.3609 68.811 42.9134 67.4398C44.4658 66.0685 45.5423 64.2326 45.9729 62.2041C45.9729 62.2041 64.6702 64.4366 66.8912 51.8009C69.2595 38.4851 55.5822 34.6547 49.7577 34.666C39.5705 34.666 31.1964 40.219 30.7431 49.7723C30.2899 59.3257 39.8651 61.6828 39.8651 61.6828L39.8765 61.6715Z" fill="white"/>
<path d="M109.069 16.8857C109.091 20.2515 108.117 23.5492 106.259 26.3484C104.411 29.1588 101.771 31.3574 98.6663 32.6606C95.5728 33.9639 92.1506 34.3265 88.8531 33.6805C85.5555 33.0459 82.5073 31.4367 80.1163 29.0682C77.7253 26.6997 76.0936 23.6739 75.4137 20.3875C74.7451 17.0897 75.0624 13.6673 76.3315 10.5621C77.6007 7.4457 79.7763 4.78255 82.5639 2.90134C85.3515 1.02014 88.6377 0.0115478 92.0033 0.000215272C96.5019 -0.0224498 100.831 1.74543 104.026 4.91854C107.222 8.08032 109.035 12.3867 109.069 16.8857Z" fill="#FE5F55"/>
</svg>
