<svg width="116" height="29" viewBox="0 0 116 29" fill="none" xmlns="http://www.w3.org/2000/svg">
<path d="M43.3749 6.39014H36.9557C36.7432 6.39 36.5376 6.46644 36.376 6.60569C36.2144 6.74493 36.1074 6.93783 36.0743 7.14961L33.4781 23.7567C33.4662 23.8338 33.4709 23.9126 33.492 23.9876C33.5132 24.0626 33.5502 24.1321 33.6005 24.1913C33.6508 24.2506 33.7132 24.2981 33.7835 24.3306C33.8538 24.3632 33.9302 24.38 34.0075 24.3798H37.0721C37.2847 24.3799 37.4904 24.3034 37.652 24.1639C37.8136 24.0245 37.9205 23.8314 37.9534 23.6194L38.6536 19.1402C38.6865 18.9284 38.7933 18.7354 38.9547 18.596C39.1161 18.4566 39.3216 18.3799 39.5341 18.3798H41.5662C45.7947 18.3798 48.2351 16.3154 48.8724 12.2245C49.1596 10.4347 48.8846 9.02841 48.0539 8.04356C47.1416 6.96211 45.5234 6.39014 43.3749 6.39014ZM44.1155 12.4555C43.7644 14.7794 42.0045 14.7794 40.3028 14.7794H39.3341L40.0137 10.4394C40.0336 10.3124 40.0978 10.1968 40.1946 10.1133C40.2915 10.0298 40.4147 9.98391 40.5421 9.98391H40.9861C42.1453 9.98391 43.2388 9.98391 43.8039 10.6506C44.1408 11.0483 44.2441 11.6392 44.1155 12.4555ZM62.5631 12.3807H59.4891C59.3617 12.3807 59.2385 12.4266 59.1416 12.5101C59.0447 12.5936 58.9806 12.7092 58.9607 12.8362L58.8246 13.7036L58.6096 13.3892C57.9442 12.4148 56.4602 12.089 54.9791 12.089C51.5822 12.089 48.6809 14.6847 48.1159 18.3258C47.8221 20.1421 48.2398 21.8789 49.261 23.0901C50.1977 24.2037 51.5381 24.6677 53.1328 24.6677C55.8698 24.6677 57.3876 22.8921 57.3876 22.8921L57.2505 23.7539C57.2383 23.8309 57.2428 23.9097 57.2637 23.9849C57.2846 24.06 57.3213 24.1297 57.3715 24.1891C57.4216 24.2485 57.4839 24.2962 57.5541 24.329C57.6243 24.3618 57.7007 24.3788 57.778 24.3789H60.547C60.7596 24.379 60.9653 24.3024 61.1269 24.163C61.2885 24.0235 61.3954 23.8304 61.4283 23.6185L63.0897 13.0038C63.1019 12.9269 63.0974 12.8483 63.0766 12.7733C63.0558 12.6984 63.019 12.6289 62.969 12.5696C62.9189 12.5104 62.8567 12.4628 62.7866 12.4302C62.7165 12.3976 62.6403 12.3807 62.5631 12.3807ZM58.2783 18.4167C57.9817 20.1885 56.5879 21.3779 54.8101 21.3779C53.9175 21.3779 53.2041 21.0891 52.7461 20.5418C52.2918 19.9982 52.1191 19.2245 52.2636 18.3628C52.5405 16.6061 53.9578 15.3779 55.7084 15.3779C56.5813 15.3779 57.2909 15.6705 57.7583 16.2226C58.2267 16.7804 58.4125 17.5588 58.2783 18.4167ZM78.9345 12.3807H75.8455C75.6998 12.3809 75.5564 12.417 75.4277 12.4858C75.299 12.5547 75.1888 12.6541 75.1068 12.7756L70.8464 19.1071L69.0405 13.0228C68.9851 12.8372 68.8719 12.6746 68.7178 12.5589C68.5636 12.4433 68.3766 12.3808 68.1845 12.3807H65.149C65.0638 12.3805 64.9798 12.4008 64.9039 12.4399C64.8281 12.4791 64.7626 12.536 64.7129 12.6058C64.6632 12.6757 64.6308 12.7565 64.6183 12.8415C64.6059 12.9265 64.6137 13.0134 64.6412 13.0947L68.0437 23.1687L64.8449 27.7246C64.788 27.8053 64.7543 27.9003 64.7474 27.9992C64.7405 28.098 64.7607 28.1968 64.8058 28.2848C64.8509 28.3728 64.9191 28.4467 65.003 28.4982C65.0868 28.5497 65.1832 28.5769 65.2814 28.5768H68.3666C68.5106 28.577 68.6526 28.542 68.7803 28.4747C68.9079 28.4074 69.0175 28.3099 69.0997 28.1905L79.3738 13.2283C79.4295 13.1473 79.4621 13.0525 79.4682 12.9542C79.4743 12.8558 79.4536 12.7577 79.4084 12.6704C79.3631 12.583 79.295 12.5099 79.2115 12.4588C79.128 12.4078 79.0322 12.3808 78.9345 12.3807Z" fill="#253B80"/>
<path d="M89.1612 6.39108H82.741C82.5287 6.39117 82.3233 6.46772 82.1619 6.60694C82.0005 6.74617 81.8937 6.93894 81.8606 7.15056L79.2644 23.7577C79.2523 23.8346 79.2569 23.9133 79.2779 23.9883C79.2988 24.0632 79.3356 24.1327 79.3858 24.1919C79.4359 24.2512 79.4982 24.2987 79.5683 24.3313C79.6384 24.3639 79.7147 24.3808 79.7919 24.3808H83.0864C83.2351 24.3806 83.3788 24.3269 83.4916 24.2293C83.6045 24.1318 83.6792 23.9968 83.7022 23.8486L84.439 19.1412C84.4719 18.9294 84.5786 18.7364 84.7401 18.597C84.9015 18.4576 85.1069 18.3809 85.3194 18.3808H87.3506C91.58 18.3808 94.0195 16.3164 94.6578 12.2254C94.9459 10.4356 94.669 9.02936 93.8383 8.04451C92.9269 6.96306 91.3097 6.39108 89.1612 6.39108ZM89.9018 12.4565C89.5517 14.7804 87.7918 14.7804 86.0891 14.7804H85.1214L85.8019 10.4404C85.8214 10.3134 85.8853 10.1976 85.9821 10.1141C86.0788 10.0305 86.202 9.98471 86.3294 9.98486H86.7733C87.9316 9.98486 89.026 9.98486 89.5911 10.6515C89.928 11.0493 90.0304 11.6402 89.9018 12.4565ZM108.348 12.3817H105.276C105.149 12.3813 105.026 12.4271 104.929 12.5107C104.832 12.5943 104.768 12.7101 104.749 12.8372L104.613 13.7046L104.397 13.3902C103.731 12.4158 102.248 12.09 100.767 12.09C97.3704 12.09 94.47 14.6857 93.905 18.3268C93.6121 20.1431 94.0279 21.8799 95.0492 23.091C95.9878 24.2047 97.3262 24.6687 98.921 24.6687C101.658 24.6687 103.176 22.8931 103.176 22.8931L103.039 23.7549C103.026 23.8321 103.031 23.911 103.052 23.9863C103.073 24.0616 103.11 24.1313 103.16 24.1908C103.211 24.2502 103.273 24.2979 103.344 24.3306C103.414 24.3632 103.491 24.38 103.568 24.3799H106.336C106.549 24.3797 106.754 24.3031 106.915 24.1637C107.077 24.0242 107.184 23.8312 107.216 23.6195L108.879 13.0048C108.891 12.9277 108.886 12.8489 108.864 12.7739C108.843 12.6988 108.806 12.6293 108.756 12.5701C108.705 12.5109 108.643 12.4634 108.573 12.4309C108.502 12.3984 108.426 12.3816 108.348 12.3817ZM104.064 18.4177C103.769 20.1895 102.373 21.3789 100.595 21.3789C99.7047 21.3789 98.9895 21.0901 98.5314 20.5427C98.0771 19.9992 97.9063 19.2255 98.049 18.3637C98.3278 16.6071 99.7432 15.3788 101.494 15.3788C102.367 15.3788 103.076 15.6715 103.544 16.2236C104.014 16.7813 104.2 17.5597 104.064 18.4177ZM111.972 6.84658L109.338 23.7577C109.326 23.8346 109.33 23.9133 109.351 23.9883C109.372 24.0632 109.409 24.1327 109.459 24.1919C109.509 24.2512 109.572 24.2987 109.642 24.3313C109.712 24.3639 109.788 24.3808 109.865 24.3808H112.514C112.954 24.3808 113.328 24.0588 113.395 23.6204L115.994 7.0142C116.006 6.93722 116.001 6.85852 115.98 6.78351C115.959 6.7085 115.922 6.63896 115.872 6.57966C115.822 6.52036 115.76 6.47272 115.69 6.44C115.62 6.40729 115.543 6.39027 115.466 6.39014H112.5C112.373 6.39059 112.25 6.43677 112.153 6.52041C112.056 6.60405 111.992 6.71968 111.972 6.84658Z" fill="#179BD7"/>
<path d="M6.81974 27.6091L7.31064 24.4633L6.21715 24.4377H0.995605L4.62431 1.2245C4.63511 1.15357 4.67082 1.08892 4.72492 1.04234C4.77902 0.99575 4.84791 0.970329 4.91904 0.970707H13.7233C16.6462 0.970707 18.6633 1.58435 19.7164 2.79553C20.2101 3.36371 20.5245 3.95747 20.6766 4.61088C20.8362 5.29649 20.839 6.11563 20.6832 7.11469L20.6719 7.1876V7.82776L21.1656 8.10996C21.5425 8.30261 21.8813 8.56322 22.1652 8.8789C22.5876 9.3647 22.8608 9.98213 22.9762 10.7141C23.0954 11.467 23.056 12.3628 22.8608 13.377C22.6355 14.5437 22.2713 15.5598 21.7795 16.3913C21.3455 17.1361 20.762 17.7812 20.0665 18.2852C19.4132 18.753 18.637 19.1081 17.7594 19.3354C16.909 19.5589 15.9394 19.6716 14.8759 19.6716H14.1907C13.7008 19.6716 13.2249 19.8496 12.8513 20.1687C12.4783 20.4913 12.2308 20.9369 12.153 21.4263L12.1014 21.7095L11.2341 27.254L11.1947 27.4576C11.1843 27.522 11.1665 27.5542 11.1402 27.576C11.1148 27.597 11.083 27.6087 11.0501 27.6091H6.81974Z" fill="#253B80"/>
<path d="M21.6339 7.26025C21.6076 7.42976 21.5776 7.60306 21.5438 7.78109C20.3827 13.7953 16.4105 15.873 11.3372 15.873H8.75414C8.13371 15.873 7.6109 16.3275 7.51422 16.9449L6.19171 25.4071L5.8172 27.8058C5.80228 27.9009 5.80798 27.9982 5.83389 28.0909C5.85981 28.1836 5.90534 28.2696 5.96734 28.3428C6.02933 28.4161 6.10633 28.4749 6.19303 28.5153C6.27972 28.5556 6.37406 28.5766 6.46954 28.5766H11.0509C11.5935 28.5766 12.0543 28.1789 12.1397 27.6391L12.1848 27.4042L13.0474 21.8815L13.1028 21.5785C13.1872 21.0368 13.649 20.6391 14.1916 20.6391H14.8768C19.3155 20.6391 22.7903 18.8209 23.8059 13.5595C24.2301 11.3616 24.0105 9.52636 22.8879 8.23564C22.5321 7.83636 22.1071 7.50583 21.6339 7.26025Z" fill="#179BD7"/>
<path d="M20.4183 6.77187C20.0475 6.66367 19.6704 6.57922 19.2891 6.51903C18.5357 6.40221 17.7743 6.34616 17.012 6.35141H10.1113C9.84866 6.35121 9.59463 6.4458 9.39512 6.61809C9.1956 6.79038 9.06376 7.02899 9.02342 7.29081L7.55542 16.6715L7.51318 16.9452C7.55892 16.6466 7.70908 16.3743 7.9365 16.1777C8.16393 15.9811 8.4536 15.8731 8.7531 15.8732H11.3362C16.4094 15.8732 20.3817 13.7946 21.5427 7.78134C21.5775 7.60331 21.6066 7.43001 21.6328 7.26051C21.3265 7.09841 21.0072 6.96252 20.6783 6.85425C20.592 6.82539 20.5054 6.79792 20.4183 6.77187Z" fill="#222D65"/>
<path d="M9.02381 7.29075C9.0638 7.02886 9.19557 6.79013 9.39519 6.61793C9.59481 6.44572 9.84903 6.35147 10.1117 6.3523H17.0124C17.8299 6.3523 18.593 6.40627 19.2895 6.51991C19.7608 6.59464 20.2256 6.7064 20.6796 6.85419C21.0222 6.96877 21.3404 7.10419 21.6342 7.26044C21.9796 5.0379 21.6314 3.52463 20.4402 2.15436C19.1271 0.645836 16.7571 0 13.7244 0H4.92016C4.30067 0 3.77223 0.454547 3.67649 1.07292L0.00930145 24.5247C-0.0077797 24.6336 -0.0012809 24.7449 0.0283508 24.851C0.0579825 24.9571 0.110044 25.0555 0.180954 25.1394C0.251864 25.2232 0.339939 25.2906 0.439122 25.3369C0.538304 25.3831 0.64624 25.4071 0.755504 25.4073H6.19105L7.55581 16.6715L9.02381 7.29075Z" fill="#253B80"/>
</svg>
